<svg width="560" height="340" viewBox="0 0 560 340" xmlns="http://www.w3.org/2000/svg">
  <defs>
    <linearGradient id="bg" x1="0" y1="0" x2="1" y2="1">
      <stop offset="0" stop-color="#0ea5e9"/>
      <stop offset="1" stop-color="#22c55e"/>
    </linearGradient>
    <linearGradient id="btn" x1="0" y1="0" x2="1" y2="0">
      <stop offset="0" stop-color="#22c55e"/>
      <stop offset="1" stop-color="#3b82f6"/>
    </linearGradient>
  </defs>
  <rect x="0" y="0" width="560" height="340" rx="18" fill="rgba(15,23,42,0.9)" stroke="rgba(255,255,255,0.12)"/>
  <g transform="translate(24,24)">
    <rect x="0" y="0" width="320" height="200" rx="12" fill="rgba(2,6,23,0.9)" stroke="rgba(255,255,255,0.12)"/>
    <rect x="12" y="14" width="296" height="22" rx="8" fill="rgba(255,255,255,0.08)"/>
    <rect x="12" y="48" width="296" height="22" rx="8" fill="rgba(255,255,255,0.08)"/>
    <rect x="12" y="82" width="180" height="22" rx="8" fill="url(#btn)"/>
    <rect x="12" y="116" width="220" height="22" rx="8" fill="rgba(255,255,255,0.08)"/>
    <rect x="12" y="150" width="260" height="22" rx="8" fill="rgba(255,255,255,0.08)"/>
  </g>
  <g transform="translate(370,50)">
    <circle cx="70" cy="70" r="64" fill="url(#bg)" opacity="0.25"/>
    <circle cx="70" cy="70" r="52" fill="none" stroke="rgba(255,255,255,0.5)" stroke-width="3"/>
    <circle cx="70" cy="70" r="32" fill="none" stroke="#3b82f6" stroke-width="3"/>
    <rect x="118" y="118" width="58" height="12" rx="6" fill="#3b82f6" transform="rotate(45 118 118)"/>
    <rect x="118" y="118" width="58" height="12" rx="6" fill="#22c55e" transform="rotate(45 118 118)" opacity="0.6"/>
    <rect x="12" y="160" width="180" height="22" rx="10" fill="rgba(255,255,255,0.08)" stroke="rgba(255,255,255,0.12)"/>
    <text x="20" y="176" font-size="12" fill="#e2e8f0" font-family="Inter, system-ui">Smart matching for Lost & Found</text>
  </g>
</svg>
